<svg xmlns="http://www.w3.org/2000/svg" width="350.114" height="81.454" viewBox="0 0 3602 838">
  <metadata><?xpacket begin="﻿" id="W5M0MpCehiHzreSzNTczkc9d"?>
<x:xmpmeta xmlns:x="adobe:ns:meta/" x:xmptk="Adobe XMP Core 7.1-c000 79.a8731b9, 2021/09/09-00:37:38        ">
   <rdf:RDF xmlns:rdf="http://www.w3.org/1999/02/22-rdf-syntax-ns#">
      <rdf:Description rdf:about=""
            xmlns:xmp="http://ns.adobe.com/xap/1.0/">
         <xmp:CreatorTool>Adobe Photoshop 22.0 (Windows)</xmp:CreatorTool>
      </rdf:Description>
   </rdf:RDF>
</x:xmpmeta>
                                                                                                    
                                                                                                    
                                                                                                    
                                                                                                    
                                                                                                    
                                                                                                    
                                                                                                    
                                                                                                    
                                                                                                    
                                                                                                    
                                                                                                    
                                                                                                    
                                                                                                    
                                                                                                    
                                                                                                    
                                                                                                    
                                                                                                    
                                                                                                    
                                                                                                    
                                                                                                    
                           
<?xpacket end="w"?></metadata>
<defs>
    <style>
      .cls-1 {
        fill: #0018ff;
      }

      .cls-1, .cls-2, .cls-3 {
        stroke: #333;
        stroke-width: 0;
      }

      .cls-2 {
        fill: #ff4800;
      }

      .cls-2, .cls-4 {
        fill-rule: evenodd;
      }

      .cls-3 {
        fill: #4eb8d2;
      }

      .cls-4 {
        fill: #fff;
      }
    </style>
  </defs>
  <rect id="Rectángulo_1" data-name="Rectángulo 1" class="cls-1" x="2764" width="838" height="838"/>
  <path id="rect-naranja" class="cls-2" d="M3351.5,82.978l116.41,0.854-196.85,289.9-59.62-86.257Z"/>
  <circle id="circulo1" class="cls-3" cx="3380" cy="420" r="62"/>
  <path id="lambda" class="cls-4" d="M2892,85l117-1,477,681-118,1L3179,497,2996,768l-120-2,244-354Z"/>
  <path id="master_blanco" data-name="master blanco" class="cls-4" d="M14.384,752.613H125.467V555.673q0-63.878,11.216-93.588T170.532,415.9a83.594,83.594,0,0,1,50.373-16.479q24.88,0,42.419,13.02t26.309,39.673q8.765,26.655,8.767,86.06V752.613H410.3V552.824q0-63.475,10.986-92.163t33.57-44.962a85.207,85.207,0,0,1,51.066-16.276q37.431,0,56.152,26.652T580.79,528v224.61h111.9V493.01q0-79.746-15.678-115.153T625.5,320.484q-35.84-21.973-83.065-21.973-45.6,0-84.089,20.345T393.4,378.264Q373.038,339.2,339.65,318.856t-74.921-20.345q-41.131,0-75.944,15.462t-63.318,46.794V309.9H14.384V752.613ZM1125.22,358.732q-29.67-30.107-64.62-45.166a187.114,187.114,0,0,0-74.779-15.055q-86.574,0-147.126,65.511t-60.558,168.05q0,98.877,62.586,165.406T989.07,764.006q38.2,0,70.92-13.631t65.23-44.556v46.794h111.09V309.9H1125.22v48.828Zm-29.59,78.125q34.47,35.811,34.48,93.588,0,59-34.48,95.418-34.455,36.421-86.78,36.418-50.7,0-85.367-37.028t-34.669-94.4q0-56.964,34.065-93.384t85.571-36.418Q1061.16,401.05,1095.63,436.857Zm459.48-119.425a179.822,179.822,0,0,0-81.17-18.921q-63.075,0-103.56,37.232t-40.49,89.721q0,81.387,107.43,135.5l37.43,18.718q48.42,24.414,48.42,50.049,0,13.837-13.43,24.414t-35.4,10.579q-20.34,0-46.59-14.038a157.887,157.887,0,0,1-45.77-36.825l-68.36,74.463q57.765,75.684,154.62,75.684,72.84,0,116.17-39.47t43.34-98.47q0-44.344-24.01-77.311t-88.3-64.7l-40.69-20.345q-26.46-13.019-33.16-20.549-6.72-7.524-6.72-16.479,0-11.8,10.58-19.735t29.3-7.934q34.185,0,76.09,41.5l68.77-68.767Q1593.15,336.353,1555.11,317.432Zm173.55-7.528h-56.97v95.622h56.97V752.613h111.08V405.526h65.92V309.9h-65.92V146.737H1728.66V309.9ZM2409,542.245q0-109.863-65.52-176.8T2173.4,298.511q-98.475,0-163.78,66.935T1944.31,533.7q0,98.877,65.52,164.591t169.67,65.715q67.14,0,115.97-23.8t83.82-73.445l-93.59-43.946q-44.76,43.545-107.01,43.539-52.095,0-85.65-27.873t-41.3-75.073h356.85ZM2056.62,475.92q18.75-41.094,40.76-57.373,35.04-26.036,81.51-26.042,42.81,0,75.2,23.194,32.415,23.193,43.41,60.221H2056.62Zm415.85,276.693h110.27V573.576l-0.4-21.566q0-92.772,17.7-124.511t43.33-31.739q12.615,0,32.15,9.766L2710.1,309.9q-23.595-11.387-45.16-11.393a99.167,99.167,0,0,0-56.16,17.09q-25.635,17.09-41.09,50.049V309.9h-95.22V752.613Z"/>
</svg>
