<svg xmlns="http://www.w3.org/2000/svg" width="350.114" height="81.454" viewBox="0 0 3602 838">
  <metadata><?xpacket begin="﻿" id="W5M0MpCehiHzreSzNTczkc9d"?>
<x:xmpmeta xmlns:x="adobe:ns:meta/" x:xmptk="Adobe XMP Core 7.1-c000 79.a8731b9, 2021/09/09-00:37:38        ">
   <rdf:RDF xmlns:rdf="http://www.w3.org/1999/02/22-rdf-syntax-ns#">
      <rdf:Description rdf:about=""
            xmlns:xmp="http://ns.adobe.com/xap/1.0/">
         <xmp:CreatorTool>Adobe Photoshop 22.0 (Windows)</xmp:CreatorTool>
      </rdf:Description>
   </rdf:RDF>
</x:xmpmeta>
                                                                                                    
                                                                                                    
                                                                                                    
                                                                                                    
                                                                                                    
                                                                                                    
                                                                                                    
                                                                                                    
                                                                                                    
                                                                                                    
                                                                                                    
                                                                                                    
                                                                                                    
                                                                                                    
                                                                                                    
                                                                                                    
                                                                                                    
                                                                                                    
                                                                                                    
                                                                                                    
                           
<?xpacket end="w"?></metadata>
<defs>
    <style>
      .cls-1 {
        fill: #0018ff;
      }

      .cls-1, .cls-2, .cls-3 {
        stroke: #333;
        stroke-width: 0;
      }

      .cls-2 {
        fill: #ff4800;
      }

      .cls-2, .cls-4, .cls-5 {
        fill-rule: evenodd;
      }

      .cls-3 {
        fill: #4eb8d2;
      }

      .cls-4 {
        fill: #fff;
      }
    </style>
  </defs>
  <rect id="Rectángulo_1" data-name="Rectángulo 1" class="cls-1" x="2764" width="838" height="838"/>
  <path id="rect-naranja" class="cls-2" d="M3351.5,82.978l116.41,0.854-196.85,289.9-59.62-86.257Z"/>
  <circle id="circulo1" class="cls-3" cx="3380" cy="420" r="62"/>
  <path id="lambda" class="cls-4" d="M2892,85l117-1,477,681-118,1L3179,497,2996,768l-120-2,244-354Z"/>
  <path id="master" class="cls-5" d="M10.42,753.68H121.5V556.74q0-63.878,11.215-93.588t33.849-46.183a83.6,83.6,0,0,1,50.373-16.479q24.882,0,42.42,13.02t26.309,39.673q8.763,26.655,8.767,86.06V753.68h111.9V553.891q0-63.475,10.986-92.163t33.569-44.962a85.211,85.211,0,0,1,51.066-16.276q37.432,0,56.153,26.652T576.826,529.07V753.68h111.9v-259.6q0-79.746-15.678-115.153t-51.511-57.373q-35.839-21.973-83.066-21.973-45.6,0-84.088,20.345t-64.945,59.408q-20.361-39.063-53.749-59.408t-74.921-20.345q-41.132,0-75.944,15.462T121.5,361.834V310.971H10.42V753.68ZM1121.26,359.8q-29.685-30.106-64.63-45.166a187.035,187.035,0,0,0-74.772-15.055q-86.574,0-147.126,65.511t-60.559,168.05q0,98.877,62.587,165.406t148.347,66.528q38.21,0,70.923-13.631t65.23-44.556V753.68h111.08V310.971H1121.26V359.8Zm-29.59,78.125q34.47,35.811,34.47,93.588,0,59-34.47,95.418t-86.78,36.418q-50.7,0-85.37-37.028t-34.67-94.4q0-56.964,34.066-93.384t85.574-36.418Q1057.2,402.117,1091.67,437.924ZM1551.15,318.5a179.894,179.894,0,0,0-81.18-18.921q-63.075,0-103.55,37.232-40.5,37.231-40.49,89.721,0,81.387,107.42,135.5l37.44,18.718q48.42,24.414,48.42,50.049,0,13.837-13.43,24.414t-35.4,10.579q-20.355,0-46.59-14.038a157.928,157.928,0,0,1-45.78-36.825l-68.36,74.463q57.78,75.684,154.63,75.684,72.825,0,116.17-39.47t43.33-98.47q0-44.344-24-77.311-24.015-32.958-88.3-64.7l-40.69-20.345q-26.46-13.018-33.16-20.549-6.72-7.524-6.72-16.479,0-11.8,10.58-19.735t29.3-7.934q34.17,0,76.09,41.5l68.76-68.767Q1589.2,337.42,1551.15,318.5Zm173.54-7.528h-56.96v95.622h56.96V753.68h111.09V406.593h65.92V310.971h-65.92V147.8H1724.69V310.971Zm680.34,232.341q0-109.863-65.51-176.8t-170.08-66.935q-98.475,0-163.78,66.935t-65.31,168.254q0,98.877,65.51,164.591t169.68,65.715q67.14,0,115.97-23.8t83.82-73.445l-93.59-43.946q-44.76,43.545-107.01,43.539-52.095,0-85.66-27.873t-41.3-75.073h356.86Zm-352.37-66.325q18.75-41.094,40.76-57.373,35.04-26.035,81.51-26.042,42.8,0,75.2,23.194t43.41,60.221H2052.66ZM2468.51,753.68h110.27V574.643l-0.41-21.566q0-92.774,17.7-124.511t43.34-31.739q12.6,0,32.14,9.766l34.59-95.622q-23.61-11.387-45.17-11.393a99.159,99.159,0,0,0-56.15,17.09q-25.635,17.089-41.1,50.049V310.971h-95.21V753.68Z"/>
</svg>
