<svg width="1280" height="720" xmlns="http://www.w3.org/2000/svg" xmlns:xlink="http://www.w3.org/1999/xlink" overflow="hidden"><g><rect x="0" y="0" width="1280" height="720" fill="#FFFFFF"/><path d="M470 51.3336C470 45.6265 474.626 41 480.334 41L899.666 41C905.374 41 910 45.6265 910 51.3336L910 92.6664C910 98.3735 905.374 103 899.666 103L480.334 103C474.626 103 470 98.3735 470 92.6664Z" fill-rule="evenodd"/><text fill="#FFFFFF" font-family="Aptos Display,Aptos Display_MSFontService,sans-serif" font-weight="700" font-size="24" transform="translate(491.2 80)">Modelos</text><text fill="#FFFFFF" font-family="Aptos Display,Aptos Display_MSFontService,sans-serif" font-weight="700" font-size="24" transform="translate(583.867 80)">Generalizados</text><text fill="#FFFFFF" font-family="Aptos Display,Aptos Display_MSFontService,sans-serif" font-weight="700" font-size="24" transform="translate(735.067 80)">Lineales</text><text fill="#FFFFFF" font-family="Aptos Display,Aptos Display_MSFontService,sans-serif" font-weight="700" font-size="24" transform="translate(825.4 80)">(GLM</text><text fill="#FFFFFF" font-family="Aptos Display,Aptos Display_MSFontService,sans-serif" font-weight="700" font-size="24" transform="translate(880.9 80)">)</text><path d="M325 163.333C325 157.626 329.626 153 335.333 153L490.667 153C496.374 153 501 157.626 501 163.333L501 204.667C501 210.374 496.374 215 490.667 215L335.333 215C329.626 215 325 210.374 325 204.667Z" fill="#275317" fill-rule="evenodd"/><text fill="#FFFFFF" font-family="Aptos Display,Aptos Display_MSFontService,sans-serif" font-weight="700" font-size="20" transform="translate(370.376 178)">Variable Y</text><text fill="#FFFFFF" font-family="Aptos Display,Aptos Display_MSFontService,sans-serif" font-weight="700" font-size="20" transform="translate(368.576 202)">categórica</text><path d="M602 163.333C602 157.626 606.626 153 612.333 153L767.667 153C773.374 153 778 157.626 778 163.333L778 204.667C778 210.374 773.374 215 767.667 215L612.333 215C606.626 215 602 210.374 602 204.667Z" fill="#084F6A" fill-rule="evenodd"/><text fill="#FFFFFF" font-family="Aptos Display,Aptos Display_MSFontService,sans-serif" font-weight="700" font-size="20" transform="translate(647.325 178)">Variable Y</text><text fill="#FFFFFF" font-family="Aptos Display,Aptos Display_MSFontService,sans-serif" font-weight="700" font-size="20" transform="translate(647.839 202)">de conteo</text><path d="M948 163.333C948 157.626 952.626 153 958.333 153L1113.67 153C1119.37 153 1124 157.626 1124 163.333L1124 204.667C1124 210.374 1119.37 215 1113.67 215L958.333 215C952.626 215 948 210.374 948 204.667Z" fill="#C00000" fill-rule="evenodd"/><text fill="#FFFFFF" font-family="Aptos Display,Aptos Display_MSFontService,sans-serif" font-weight="700" font-size="20" transform="translate(993.441 178)">Variable Y</text><text fill="#FFFFFF" font-family="Aptos Display,Aptos Display_MSFontService,sans-serif" font-weight="700" font-size="20" transform="translate(998.741 202)">continua</text><path d="M327 285C327 276.164 334.164 269 343 269L483 269C491.836 269 499 276.164 499 285L499 349C499 357.836 491.836 365 483 365L343 365C334.164 365 327 357.836 327 349Z" fill="#459329" fill-rule="evenodd"/><text fill="#FFFFFF" font-family="Aptos Display,Aptos Display_MSFontService,sans-serif" font-weight="400" font-size="19" transform="translate(342.4 323)">Regresión logística</text><path d="M327 490C327 481.164 334.164 474 343 474L483 474C491.836 474 499 481.164 499 490L499 554C499 562.836 491.836 570 483 570L343 570C334.164 570 327 562.836 327 554Z" fill="#459329" fill-rule="evenodd"/><text fill="#FFFFFF" font-family="Aptos Display,Aptos Display_MSFontService,sans-serif" font-weight="400" font-size="19" transform="translate(342.4 517)">Regresión logística</text><text fill="#FFFFFF" font-family="Aptos Display,Aptos Display_MSFontService,sans-serif" font-weight="400" font-size="19" transform="translate(367.76 540)">multinomial</text><path d="M325 387.167C325 378.238 332.238 371 341.167 371L480.833 371C489.762 371 497 378.238 497 387.167L497 451.833C497 460.762 489.762 468 480.833 468L341.167 468C332.238 468 325 460.762 325 451.833Z" fill="#459329" fill-rule="evenodd"/><text fill="#FFFFFF" font-family="Aptos Display,Aptos Display_MSFontService,sans-serif" font-weight="400" font-size="19" transform="translate(340.416 414)">Regresión logística</text><text fill="#FFFFFF" font-family="Aptos Display,Aptos Display_MSFontService,sans-serif" font-weight="400" font-size="19" transform="translate(384.976 437)">ordinal</text><path d="M602 277.167C602 272.656 605.656 269 610.167 269L769.833 269C774.344 269 778 272.656 778 277.167L778 309.833C778 314.344 774.344 318 769.833 318L610.167 318C605.656 318 602 314.344 602 309.833Z" fill="#0D89BB" fill-rule="evenodd"/><text fill="#FFFFFF" font-family="Aptos Display,Aptos Display_MSFontService,sans-serif" font-weight="400" font-size="19" transform="translate(641.152 288)">Regresión de</text><text fill="#FFFFFF" font-family="Aptos Display,Aptos Display_MSFontService,sans-serif" font-weight="400" font-size="19" transform="translate(660.045 311)">Poisson</text><path d="M674 560.167C674 554.552 678.552 550 684.167 550L839.833 550C845.448 550 850 554.552 850 560.167L850 600.833C850 606.448 845.448 611 839.833 611L684.167 611C678.552 611 674 606.448 674 600.833Z" fill="#10A9E6" fill-rule="evenodd"/><text fill="#FFFFFF" font-family="Aptos Display,Aptos Display_MSFontService,sans-serif" font-weight="400" font-size="19" transform="translate(688.979 586)">Modelo</text><text fill="#FFFFFF" font-family="Aptos Display,Aptos Display_MSFontService,sans-serif" font-weight="400" font-size="19" transform="translate(745.645 586)">s truncados</text><path d="M603 408.667C603 402.223 608.223 397 614.667 397L767.333 397C773.777 397 779 402.223 779 408.667L779 455.333C779 461.777 773.777 467 767.333 467L614.667 467C608.223 467 603 461.777 603 455.333Z" fill="#0D89BB" fill-rule="evenodd"/><text fill="#FFFFFF" font-family="Aptos,Aptos_MSFontService,sans-serif" font-weight="400" font-size="19" transform="translate(629.701 415)">Regresión CMP</text><text fill="#FFFFFF" font-family="Aptos,Aptos_MSFontService,sans-serif" font-weight="400" font-size="19" transform="translate(618.921 438)">Conway</text><text fill="#FFFFFF" font-family="Aptos,Aptos_MSFontService,sans-serif" font-weight="400" font-size="19" transform="translate(684.407 438)">-</text><text fill="#FFFFFF" font-family="Aptos,Aptos_MSFontService,sans-serif" font-weight="400" font-size="19" transform="translate(690.741 438)">Maxwell</text><text fill="#FFFFFF" font-family="Aptos,Aptos_MSFontService,sans-serif" font-weight="400" font-size="19" transform="translate(756.561 438)">-</text><text fill="#FFFFFF" font-family="Aptos,Aptos_MSFontService,sans-serif" font-weight="400" font-size="19" transform="translate(659.094 460)">Poisson</text><path d="M324 631.333C324 625.626 328.626 621 334.333 621L484.667 621C490.374 621 495 625.626 495 631.333L495 672.667C495 678.374 490.374 683 484.667 683L334.333 683C328.626 683 324 678.374 324 672.667Z" fill="#10A9E6" fill-rule="evenodd"/><text fill="#FFFFFF" font-family="Aptos Display,Aptos Display_MSFontService,sans-serif" font-weight="400" font-size="19" transform="translate(376.993 647)">Modelo</text><text fill="#FFFFFF" font-family="Aptos Display,Aptos Display_MSFontService,sans-serif" font-weight="400" font-size="19" transform="translate(433.659 647)">s</text><text fill="#FFFFFF" font-family="Aptos Display,Aptos Display_MSFontService,sans-serif" font-weight="400" font-size="19" transform="translate(365.466 670)">censurados</text><path d="M501 631.333C501 625.626 505.626 621 511.333 621L656.667 621C662.374 621 667 625.626 667 631.333L667 672.667C667 678.374 662.374 683 656.667 683L511.333 683C505.626 683 501 678.374 501 672.667Z" fill="#10A9E6" fill-rule="evenodd"/><text fill="#FFFFFF" font-family="Aptos Display,Aptos Display_MSFontService,sans-serif" font-weight="400" font-size="19" transform="translate(540.445 646)">Modelos de</text><text fill="#FFFFFF" font-family="Aptos Display,Aptos Display_MSFontService,sans-serif" font-weight="400" font-size="19" transform="translate(558.979 669)">Hurdle</text><path d="M674 631.333C674 625.626 678.626 621 684.333 621L833.667 621C839.374 621 844 625.626 844 631.333L844 672.667C844 678.374 839.374 683 833.667 683L684.333 683C678.626 683 674 678.374 674 672.667Z" fill="#10A9E6" fill-rule="evenodd"/><text fill="#FFFFFF" font-family="Aptos Display,Aptos Display_MSFontService,sans-serif" font-weight="400" font-size="19" transform="translate(706.351 646)">Modelos Cero</text><text fill="#FFFFFF" font-family="Aptos Display,Aptos Display_MSFontService,sans-serif" font-weight="400" font-size="19" transform="translate(728.731 669)">Inflados</text><path d="M34 489.667C34 483.776 38.7757 479 44.6669 479L284.333 479C290.224 479 295 483.776 295 489.667L295 532.333C295 538.224 290.224 543 284.333 543L44.6669 543C38.7757 543 34 538.224 34 532.333Z" stroke="#A6A6A6" stroke-width="2" stroke-miterlimit="8" fill="#E8E8E8" fill-rule="evenodd"/><text fill="#3A3A3A" font-family="Aptos Display,Aptos Display_MSFontService,sans-serif" font-weight="700" font-size="20" transform="translate(53.2939 505)">Ecuaciones de Estimación</text><text fill="#3A3A3A" font-family="Aptos Display,Aptos Display_MSFontService,sans-serif" font-weight="700" font-size="20" transform="translate(77.2206 529)">Generalizadas (GEE)</text><path d="M34 558.834C34 552.85 38.8504 548 44.8336 548L284.166 548C290.15 548 295 552.85 295 558.834L295 602.166C295 608.15 290.15 613 284.166 613L44.8336 613C38.8504 613 34 608.15 34 602.166Z" stroke="#A6A6A6" stroke-width="2" stroke-miterlimit="8" fill="#E8E8E8" fill-rule="evenodd"/><text fill="#3A3A3A" font-family="Aptos Display,Aptos Display_MSFontService,sans-serif" font-weight="700" font-size="20" transform="translate(76.1672 574)">Modelos</text><text fill="#3A3A3A" font-family="Aptos Display,Aptos Display_MSFontService,sans-serif" font-weight="700" font-size="20" transform="translate(153.667 574)">con efectos</text><text fill="#3A3A3A" font-family="Aptos Display,Aptos Display_MSFontService,sans-serif" font-weight="700" font-size="20" transform="translate(73.9272 598)">mixtos (GLMM, LMM)</text><path d="M34 631.667C34 625.776 38.7757 621 44.6669 621L284.333 621C290.224 621 295 625.776 295 631.667L295 674.333C295 680.224 290.224 685 284.333 685L44.6669 685C38.7757 685 34 680.224 34 674.333Z" stroke="#A6A6A6" stroke-width="2" stroke-miterlimit="8" fill="#E8E8E8" fill-rule="evenodd"/><text fill="#3A3A3A" font-family="Aptos Display,Aptos Display_MSFontService,sans-serif" font-weight="700" font-size="20" transform="translate(91.3106 647)">Modelos</text><text fill="#3A3A3A" font-family="Aptos Display,Aptos Display_MSFontService,sans-serif" font-weight="700" font-size="20" transform="translate(168.811 647)">Aditivos</text><text fill="#3A3A3A" font-family="Aptos Display,Aptos Display_MSFontService,sans-serif" font-weight="700" font-size="20" transform="translate(74.1239 671)">Generalizados (GAM)</text><path d="M860 277C860 272.582 863.582 269 868 269L1028 269C1032.42 269 1036 272.582 1036 277L1036 309C1036 313.418 1032.42 317 1028 317L868 317C863.582 317 860 313.418 860 309Z" fill="#E67E7E" fill-rule="evenodd"/><text fill="#FFFFFF" font-family="Aptos Display,Aptos Display_MSFontService,sans-serif" font-weight="400" font-size="19" transform="translate(917.486 299)">Gamma</text><path d="M1047 277C1047 272.582 1050.58 269 1055 269L1215 269C1219.42 269 1223 272.582 1223 277L1223 309C1223 313.418 1219.42 317 1215 317L1055 317C1050.58 317 1047 313.418 1047 309Z" fill="#E67E7E" fill-rule="evenodd"/><text fill="#FFFFFF" font-family="Aptos Display,Aptos Display_MSFontService,sans-serif" font-weight="400" font-size="19" transform="translate(1065.92 299)">Gaussiana Inversa</text><path d="M860 354.667C860 340.492 871.492 329 885.667 329L1010.33 329C1024.51 329 1036 340.492 1036 354.667L1036 457.333C1036 471.508 1024.51 483 1010.33 483L885.667 483C871.492 483 860 471.508 860 457.333Z" fill="#E67E7E" fill-rule="evenodd"/><text fill="#FFFFFF" font-family="Aptos Display,Aptos Display_MSFontService,sans-serif" font-weight="700" font-size="19" transform="translate(901.903 356)">Modelos de</text><text fill="#FFFFFF" font-family="Aptos Display,Aptos Display_MSFontService,sans-serif" font-weight="700" font-size="19" transform="translate(892.603 379)">supervivencia</text><text fill="#FFFFFF" font-family="Aptos Display,Aptos Display_MSFontService,sans-serif" font-weight="400" font-size="19" transform="translate(877.59 401)">(Regresión de Cox,</text><text fill="#FFFFFF" font-family="Aptos Display,Aptos Display_MSFontService,sans-serif" font-weight="400" font-size="19" transform="translate(916.89 423)">Weibull.</text><text fill="#FFFFFF" font-family="Aptos Display,Aptos Display_MSFontService,sans-serif" font-weight="400" font-size="19" transform="translate(883.156 446)">Exponencial, log</text><text fill="#FFFFFF" font-family="Aptos Display,Aptos Display_MSFontService,sans-serif" font-weight="400" font-size="19" transform="translate(1006.16 446)">-</text><text fill="#FFFFFF" font-family="Aptos Display,Aptos Display_MSFontService,sans-serif" font-weight="400" font-size="19" transform="translate(913.623 468)">logístico)</text><path d="M1047 334.167C1047 330.761 1049.76 328 1053.17 328L1216.83 328C1220.24 328 1223 330.761 1223 334.167L1223 358.833C1223 362.239 1220.24 365 1216.83 365L1053.17 365C1049.76 365 1047 362.239 1047 358.833Z" fill="#E67E7E" fill-rule="evenodd"/><text fill="#FFFFFF" font-family="Aptos Display,Aptos Display_MSFontService,sans-serif" font-weight="400" font-size="19" transform="translate(1117.64 352)">Beta</text><path d="M0 0 57.392 0 57.392 81.3148" stroke="#000000" stroke-width="2" stroke-miterlimit="8" fill="none" fill-rule="evenodd" transform="matrix(-1 1.22465e-16 1.22465e-16 1 470.392 72)"/><path d="M910 72 1036.04 72 1036.04 153.314" stroke="#000000" stroke-width="2" stroke-miterlimit="8" fill="none" fill-rule="evenodd"/><path d="M0 0 24 0 24 234.855 1.33333 234.855" stroke="#000000" stroke-width="2" stroke-miterlimit="8" fill="none" fill-rule="evenodd" transform="matrix(-1 1.22465e-16 1.22465e-16 1 326.333 184)"/><path d="M0 0-24 0-24 337.771 1.98331 337.771" stroke="#000000" stroke-width="2" stroke-miterlimit="8" fill="none" fill-rule="evenodd" transform="matrix(-1 0 0 1 500.983 184)"/><path d="M0 0 112.084 0 112.084 221.35 88.0848 221.35" stroke="#000000" stroke-width="2" stroke-miterlimit="8" fill="none" fill-rule="evenodd" transform="matrix(-1 1.22465e-16 1.22465e-16 1 948.085 184)"/><path d="M1124 184 1247.04 184 1247.04 345.796 1223.04 345.796" stroke="#000000" stroke-width="2" stroke-miterlimit="8" fill="none" fill-rule="evenodd"/><path d="M0 0 26.7788 0 26.7788 99.0356 53.5576 99.0356" stroke="#000000" stroke-width="2" stroke-miterlimit="8" fill="none" fill-rule="evenodd" transform="matrix(1.83697e-16 1 1 -1.83697e-16 1036 215)"/><path d="M1036.08 215 1036.08 241.957 948 241.957 948 268.915" stroke="#000000" stroke-width="2" stroke-miterlimit="8" fill="none" fill-rule="evenodd"/><path d="M0 0 41.7695 0 41.7695 70.8511 83.5389 70.8511" stroke="#000000" stroke-width="2" stroke-miterlimit="8" fill="none" fill-rule="evenodd" transform="matrix(1.83697e-16 1 1 -1.83697e-16 691 467)"/><path d="M690.545 467 690.545 544.038 584 544.038 584 621.076" stroke="#000000" stroke-width="2" stroke-miterlimit="8" fill="none" fill-rule="evenodd"/><path d="M0 0 174.702 0 174.702 40.5333" stroke="#000000" stroke-width="2" stroke-miterlimit="8" fill="none" fill-rule="evenodd" transform="matrix(-1 1.22465e-16 1.22465e-16 1 584.702 580)"/><path d="M0 0 4.1864 0 4.1864 106.697 126.861 106.697 126.861 82.6969" stroke="#000000" stroke-width="2" stroke-miterlimit="8" fill="none" fill-rule="evenodd" transform="matrix(1.83697e-16 1 1 -1.83697e-16 762 525)"/><path d="M413 215 413 268.557" stroke="#000000" stroke-width="2" stroke-miterlimit="8" fill="none" fill-rule="evenodd"/><path d="M0 0 0.261312 50.3205" stroke="#000000" stroke-width="2" stroke-miterlimit="8" fill="none" fill-rule="evenodd" transform="matrix(-1 0 0 1 690.261 103)"/><path d="M0 0 0.0901837 53.5575" stroke="#000000" stroke-width="2" stroke-miterlimit="8" fill="none" fill-rule="evenodd" transform="matrix(-1 0 0 1 690.09 215)"/><path d="M31 82.3334C31 76.6264 35.6264 72 41.3334 72L253.667 72C259.374 72 264 76.6264 264 82.3334L264 123.667C264 129.374 259.374 134 253.667 134L41.3334 134C35.6264 134 31 129.374 31 123.667Z" stroke="#A6A6A6" stroke-width="2" stroke-miterlimit="8" fill="#E8E8E8" fill-rule="evenodd"/><text fill="#3A3A3A" font-family="Aptos Display,Aptos Display_MSFontService,sans-serif" font-weight="700" font-size="20" transform="translate(56.3466 97)">Modelos de regresión</text><text fill="#3A3A3A" font-family="Aptos Display,Aptos Display_MSFontService,sans-serif" font-weight="700" font-size="20" transform="translate(123.607 121)">lineal</text><path d="M689.222 39.02 689.222 16.9998 690.222 17.9998 367.704 17.9998 368.704 16.9998 368.704 106.354 265 106.354 265 104.354 367.704 104.354 366.704 105.354 366.704 15.9998 691.222 15.9998 691.222 39.02ZM695.752 31.5239 690.222 41.0046 684.691 31.5239C684.413 31.0468 684.574 30.4345 685.051 30.1562 685.528 29.8779 686.141 30.0391 686.419 30.5161L691.086 38.5161 689.358 38.5161 694.025 30.5161C694.303 30.0391 694.915 29.8779 695.392 30.1562 695.869 30.4345 696.03 31.0468 695.752 31.5239Z"/><path d="M31 169.946C31 160.587 38.587 153 47.9461 153L247.054 153C256.413 153 264 160.587 264 169.946L264 424.054C264 433.413 256.413 441 247.054 441L47.9461 441C38.587 441 31 433.413 31 424.054Z" stroke="#A6A6A6" stroke-width="2" stroke-miterlimit="8" fill="none" fill-rule="evenodd"/><text fill="#3A3A3A" font-family="Aptos Display,Aptos Display_MSFontService,sans-serif" font-weight="400" font-size="19" transform="translate(80.5099 180)">Regresión simple,</text><text fill="#3A3A3A" font-family="Aptos Display,Aptos Display_MSFontService,sans-serif" font-weight="400" font-size="19" transform="translate(77.0633 203)">Regresión</text><text fill="#3A3A3A" font-family="Aptos Display,Aptos Display_MSFontService,sans-serif" font-weight="400" font-size="19" transform="translate(155.49 203)">múltiple</text><text fill="#3A3A3A" font-family="Aptos Display,Aptos Display_MSFontService,sans-serif" font-weight="400" font-size="19" transform="translate(67.6366 225)">Regresión Ponderada</text><text fill="#3A3A3A" font-family="Aptos Display,Aptos Display_MSFontService,sans-serif" font-weight="400" font-size="19" transform="translate(123.943 247)">(WLS</text><text fill="#3A3A3A" font-family="Aptos Display,Aptos Display_MSFontService,sans-serif" font-weight="400" font-size="19" transform="translate(165.11 247)">)</text><text fill="#3A3A3A" font-family="Aptos Display,Aptos Display_MSFontService,sans-serif" font-weight="400" font-size="19" transform="translate(50.8966 270)">Regresión</text><text fill="#3A3A3A" font-family="Aptos Display,Aptos Display_MSFontService,sans-serif" font-weight="400" font-size="19" transform="translate(129.323 270)">Cuantílica</text><text fill="#3A3A3A" font-family="Aptos Display,Aptos Display_MSFontService,sans-serif" font-weight="400" font-size="19" transform="translate(209.717 270)">(RC)</text><text fill="#3A3A3A" font-family="Aptos Display,Aptos Display_MSFontService,sans-serif" font-weight="400" font-size="19" transform="translate(83.3966 292)">Regresión</text><text fill="#3A3A3A" font-family="Aptos Display,Aptos Display_MSFontService,sans-serif" font-weight="400" font-size="19" transform="translate(161.823 292)">Lasso,</text><text fill="#3A3A3A" font-family="Aptos Display,Aptos Display_MSFontService,sans-serif" font-weight="400" font-size="19" transform="translate(45.8699 315)">Regresión</text><text fill="#3A3A3A" font-family="Aptos Display,Aptos Display_MSFontService,sans-serif" font-weight="400" font-size="19" transform="translate(124.297 315)">Ridge,</text><text fill="#3A3A3A" font-family="Aptos Display,Aptos Display_MSFontService,sans-serif" font-weight="400" font-size="19" transform="translate(173.923 315)">Regresión</text><text fill="#3A3A3A" font-family="Aptos Display,Aptos Display_MSFontService,sans-serif" font-weight="400" font-size="19" transform="translate(106.077 337)">Elastic</text><text fill="#3A3A3A" font-family="Aptos Display,Aptos Display_MSFontService,sans-serif" font-weight="400" font-size="19" transform="translate(160.97 337)">Net</text><text fill="#3A3A3A" font-family="Aptos Display,Aptos Display_MSFontService,sans-serif" font-weight="400" font-size="19" transform="translate(66.1033 359)">Regresión logarítmica</text><text fill="#3A3A3A" font-family="Aptos Display,Aptos Display_MSFontService,sans-serif" font-weight="400" font-size="19" transform="translate(59.4766 382)">(Log</text><text fill="#3A3A3A" font-family="Aptos Display,Aptos Display_MSFontService,sans-serif" font-weight="400" font-size="19" transform="translate(91.6899 382)">-</text><text fill="#3A3A3A" font-family="Aptos Display,Aptos Display_MSFontService,sans-serif" font-weight="400" font-size="19" transform="translate(98.1899 382)">Lineal, Lineal</text><text fill="#3A3A3A" font-family="Aptos Display,Aptos Display_MSFontService,sans-serif" font-weight="400" font-size="19" transform="translate(197.19 382)">-</text><text fill="#3A3A3A" font-family="Aptos Display,Aptos Display_MSFontService,sans-serif" font-weight="400" font-size="19" transform="translate(203.69 382)">Log,</text><text fill="#3A3A3A" font-family="Aptos Display,Aptos Display_MSFontService,sans-serif" font-weight="400" font-size="19" transform="translate(114.47 404)">Log</text><text fill="#3A3A3A" font-family="Aptos Display,Aptos Display_MSFontService,sans-serif" font-weight="400" font-size="19" transform="translate(141.183 404)">-</text><text fill="#3A3A3A" font-family="Aptos Display,Aptos Display_MSFontService,sans-serif" font-weight="400" font-size="19" transform="translate(147.683 404)">Log)</text><text fill="#3A3A3A" font-family="Aptos Display,Aptos Display_MSFontService,sans-serif" font-weight="400" font-size="19" transform="translate(76.5699 427)">Regresión Robusta</text><path d="M147 134 147 153.327" stroke="#000000" stroke-width="2" stroke-miterlimit="8" fill="none" fill-rule="evenodd"/><path d="M892 518.333C892 512.626 896.626 508 902.333 508L1235.67 508C1241.37 508 1246 512.626 1246 518.333L1246 559.667C1246 565.374 1241.37 570 1235.67 570L902.333 570C896.626 570 892 565.374 892 559.667Z" stroke="#A6A6A6" stroke-width="2" stroke-miterlimit="8" fill="#E8E8E8" fill-rule="evenodd"/><text fill="#3A3A3A" font-family="Aptos Display,Aptos Display_MSFontService,sans-serif" font-weight="700" font-size="20" transform="translate(929.702 533)">Modelos para Datos Espaciales y</text><text fill="#3A3A3A" font-family="Aptos Display,Aptos Display_MSFontService,sans-serif" font-weight="700" font-size="20" transform="translate(1019.52 557)">Temporales</text><path d="M892 613.455C892 610.442 894.442 608 897.455 608L1240.55 608C1243.56 608 1246 610.442 1246 613.455L1246 677.545C1246 680.558 1243.56 683 1240.55 683L897.455 683C894.442 683 892 680.558 892 677.545Z" stroke="#A6A6A6" stroke-width="2" stroke-miterlimit="8" fill="none" fill-rule="evenodd"/><text fill="#3A3A3A" font-family="Aptos Display,Aptos Display_MSFontService,sans-serif" font-weight="400" font-size="19" transform="translate(907.632 629)">Modelos Temporales: ARIMA, SARIMA, etc.</text><text fill="#3A3A3A" font-family="Aptos Display,Aptos Display_MSFontService,sans-serif" font-weight="400" font-size="19" transform="translate(920.772 652)">Modelos</text><text fill="#3A3A3A" font-family="Aptos Display,Aptos Display_MSFontService,sans-serif" font-weight="400" font-size="19" transform="translate(989.772 652)">Espaciales:</text><text fill="#3A3A3A" font-family="Aptos Display,Aptos Display_MSFontService,sans-serif" font-weight="400" font-size="19" transform="translate(1080.44 652)">SAR,</text><text fill="#3A3A3A" font-family="Aptos Display,Aptos Display_MSFontService,sans-serif" font-weight="400" font-size="19" transform="translate(1120.75 652)">CAR,</text><text fill="#3A3A3A" font-family="Aptos Display,Aptos Display_MSFontService,sans-serif" font-weight="400" font-size="19" transform="translate(1162.98 652)">Kriging</text><text fill="#3A3A3A" font-family="Aptos Display,Aptos Display_MSFontService,sans-serif" font-weight="400" font-size="19" transform="translate(1212.91 652)">,</text><text fill="#3A3A3A" font-family="Aptos Display,Aptos Display_MSFontService,sans-serif" font-weight="400" font-size="19" transform="translate(972.506 674)">Autocorrelación Espacial.</text><path d="M1069 570 1069 607.707" stroke="#000000" stroke-width="2" stroke-miterlimit="8" fill="none" fill-rule="evenodd"/><path d="M602 336.167C602 330.552 606.552 326 612.167 326L767.833 326C773.448 326 778 330.552 778 336.167L778 376.833C778 382.448 773.448 387 767.833 387L612.167 387C606.552 387 602 382.448 602 376.833Z" fill="#0D89BB" fill-rule="evenodd"/><text fill="#FFFFFF" font-family="Aptos Display,Aptos Display_MSFontService,sans-serif" font-weight="400" font-size="19" transform="translate(617.318 351)">Regresión Binomial</text><text fill="#FFFFFF" font-family="Aptos Display,Aptos Display_MSFontService,sans-serif" font-weight="400" font-size="19" transform="translate(656.972 374)">Negativa</text><path d="M0 0 24 0 24 63.4449 1.33333 63.4449" stroke="#000000" stroke-width="2" stroke-miterlimit="8" fill="none" fill-rule="evenodd" transform="matrix(-1 1.22465e-16 1.22465e-16 1 603.333 293)"/><path d="M778 293 803.126 293 803.126 431.693 779.126 431.693" stroke="#000000" stroke-width="2" stroke-miterlimit="8" fill="none" fill-rule="evenodd"/></g></svg>